HIERARCHY
ROOT Hips
{
	OFFSET	0.000000	0.000000	0.000000
	CHANNELS 6 Xposition Yposition Zposition Zrotation Xrotation Yrotation
	JOINT LeftUpLeg
	{
		OFFSET	12.811937	-7.635976	0.557276
		CHANNELS 3 Zrotation Xrotation Yrotation
		JOINT LeftLeg
		{
			OFFSET	-0.429270	-42.206159	-1.204951
			CHANNELS 3 Zrotation Xrotation Yrotation
			JOINT LeftFoot
			{
				OFFSET	-2.112259	-42.464481	-3.973220
				CHANNELS 3 Zrotation Xrotation Yrotation
				JOINT LeftFootHeel
				{
					OFFSET	0.387196	-5.329707	-3.419729
					CHANNELS 3 Zrotation Xrotation Yrotation
					End Site
					{
						OFFSET	0.327567	-0.000003	16.505428
					}
				}
			}
		}
	}
	JOINT RightUpLeg
	{
		OFFSET	-12.811937	-7.635976	0.557276
		CHANNELS 3 Zrotation Xrotation Yrotation
		JOINT RightLeg
		{
			OFFSET	0.429270	-42.206159	-1.204951
			CHANNELS 3 Zrotation Xrotation Yrotation
			JOINT RightFoot
			{
				OFFSET	2.112259	-42.464481	-3.973220
				CHANNELS 3 Zrotation Xrotation Yrotation
				JOINT RightFootHeel
				{
					OFFSET	-0.387198	-5.329707	-3.419729
					CHANNELS 3 Zrotation Xrotation Yrotation
					End Site
					{
						OFFSET	-0.327566	-0.000003	16.505428
					}
				}
			}
		}
	}
	JOINT Spine
	{
		OFFSET	0.000000	13.731315	-1.007646
		CHANNELS 3 Zrotation Xrotation Yrotation
		JOINT Spine1
		{
			OFFSET	0.000000	12.091746	-0.604589
			CHANNELS 3 Zrotation Xrotation Yrotation
			JOINT LeftShoulder
			{
				OFFSET	5.746115	20.990027	-0.833816
				CHANNELS 3 Zrotation Xrotation Yrotation
				JOINT LeftArm
				{
					OFFSET	10.881538	-1.359258	0.219250
					CHANNELS 3 Zrotation Xrotation Yrotation
					JOINT LeftForeArm
					{
						OFFSET	4.390314	-31.537147	0.202818
						CHANNELS 3 Zrotation Xrotation Yrotation
						JOINT LeftHand
						{
							OFFSET	3.168650	-24.865023	5.373370
							CHANNELS 3 Zrotation Xrotation Yrotation
							End Site
							{
								OFFSET	1.457528	-10.806075	2.170267
							}
						}
					}
				}
			}
			JOINT RightShoulder
			{
				OFFSET	-5.746115	20.990027	-0.833816
				CHANNELS 3 Zrotation Xrotation Yrotation
				JOINT RightArm
				{
					OFFSET	-10.881538	-1.359258	0.219250
					CHANNELS 3 Zrotation Xrotation Yrotation
					JOINT RightForeArm
					{
						OFFSET	-4.390314	-31.537147	0.202818
						CHANNELS 3 Zrotation Xrotation Yrotation
						JOINT RightHand
						{
							OFFSET	-3.168650	-24.865023	5.373370
							CHANNELS 3 Zrotation Xrotation Yrotation
							End Site
							{
								OFFSET	-1.457528	-10.806075	2.170267
							}
						}
					}
				}
			}
			JOINT Neck
			{
				OFFSET	0.000000	27.075639	0.680489
				CHANNELS 3 Zrotation Xrotation Yrotation
				JOINT Head
				{
					OFFSET	0.000000	12.391287	1.239129
					CHANNELS 3 Zrotation Xrotation Yrotation
					End Site
					{
						OFFSET	0.000000	13.818691	-0.105853
					}
				}
			}
		}
	}
}
MOTION
Frames:     13
Frame Time: 0.016667
0.000000	100.976238	0.000000	177.018951	179.303879	7.943341	-5.444448	1.307542	-9.560728	2.814474	0.097297	1.395936	-1.714327	0.316062	3.740636	0.	0.	0.	2.073466	2.062457	-10.152951	-1.296515	-2.411460	0.484081	-0.873261	2.807379	2.629056	0.	0.	0.	-3.370211	5.065089	-3.398628	0.128357	0.619318	-1.708029	2.200391	-2.016343	0.962614	-1.618412	-1.139871	-1.172863	-2.369315	-3.982042	-0.720741	-3.480123	-1.859393	-2.469724	-2.875844	-4.511320	-0.946621	2.099635	1.599245	-0.404457	-0.068434	-1.646459	3.518480	-2.582800	2.616600	5.367590	-1.047372	-2.191110	39.021168	2.398034	0.417814	-48.030491	
0.008278	100.976587	0.019867	177.018951	179.303879	7.943341	-5.444448	1.307542	-9.560728	2.814474	0.097297	1.395936	-1.714327	0.316062	3.740636	0.	0.	0.	2.080732	2.034202	-10.155252	-1.308535	-2.384981	0.486730	-0.873263	2.807379	2.629056	0.	0.	0.	-3.370211	5.065089	-3.398628	0.128357	0.619318	-1.708029	2.200391	-2.016343	0.962614	-1.618980	-1.143067	-1.172891	-2.373909	-3.986328	-0.679944	-3.412554	-1.856511	-2.469835	-2.875844	-4.511320	-0.946621	2.138448	1.587792	-0.458184	-0.059406	-1.644770	3.424981	-2.533133	2.630196	5.354224	-1.047372	-2.191110	39.021168	2.398034	0.417814	-48.030491	
0.008278	100.976587	0.019867	177.018951	179.303879	7.943341	-5.444448	1.307542	-9.560728	2.813620	0.096829	1.386132	-1.713516	0.316216	3.750450	0.	0.	0.	2.080732	2.034202	-10.155252	-1.308535	-2.384981	0.486730	-0.873263	2.807379	2.629056	0.	0.	0.	-3.370211	5.065089	-3.398628	0.128357	0.619318	-1.708029	2.200391	-2.016343	0.962614	-1.618980	-1.143067	-1.172891	-2.373909	-3.986328	-0.679944	-3.412554	-1.856511	-2.469835	-2.875844	-4.511320	-0.946621	2.164126	1.580336	-0.491610	-0.055952	-1.643608	3.369104	-2.500604	2.623227	5.341158	-1.047372	-2.191110	39.021168	2.398034	0.417814	-48.030491	
0.021409	100.977110	0.051366	177.018951	179.303879	7.943341	-5.444448	1.307542	-9.560728	2.810763	0.095246	1.353251	-1.710804	0.316747	3.783367	0.	0.	0.	2.092256	1.989407	-10.158838	-1.327598	-2.343003	0.490877	-0.873262	2.807378	2.629055	0.	0.	0.	-3.370211	5.065089	-3.398628	0.128357	0.619318	-1.708029	2.200391	-2.016343	0.962614	-1.618980	-1.143067	-1.172891	-2.383236	-4.003395	-0.668362	-3.356540	-1.843905	-2.451157	-2.866956	-4.515028	-0.943528	2.180973	1.577145	-0.515008	-0.052520	-1.643417	3.299761	-2.476136	2.616866	5.341324	-1.047372	-2.191110	39.021168	2.398034	0.417814	-48.030491	
0.030018	100.977440	0.072032	177.018951	179.303879	7.943341	-5.444448	1.307542	-9.560728	2.809134	0.094359	1.334614	-1.709257	0.317039	3.802023	0.	0.	0.	2.099810	1.960019	-10.161194	-1.340103	-2.315465	0.493620	-0.873262	2.807378	2.629056	0.	0.	0.	-3.370211	5.065089	-3.398628	0.128357	0.619318	-1.708029	2.200391	-2.016343	0.962614	-1.618980	-1.143067	-1.172891	-2.393580	-4.022132	-0.651347	-3.325052	-1.826485	-2.453923	-2.853053	-4.518480	-0.941431	2.188972	1.574759	-0.532198	-0.048563	-1.644351	3.233533	-2.458430	2.611435	5.350148	-1.047372	-2.191110	39.021168	2.398034	0.417814	-48.030491	
0.038539	100.977740	0.092483	177.018951	179.303879	7.943341	-5.444448	1.307542	-9.560728	2.807365	0.093394	1.314386	-1.707579	0.317359	3.822274	0.	0.	0.	2.107290	1.930933	-10.163520	-1.352484	-2.288209	0.496333	-0.873262	2.807378	2.629056	0.	0.	0.	-3.370211	5.065089	-3.398628	0.128226	0.619509	-1.711342	2.200643	-2.016402	0.965935	-1.618981	-1.143066	-1.172891	-2.397447	-4.028595	-0.633797	-3.327148	-1.822609	-2.451190	-2.834186	-4.516022	-0.943851	2.175658	1.570476	-0.530507	-0.033133	-1.648604	3.171494	-2.440618	2.606319	5.353463	-1.047109	-2.191357	39.024483	2.398035	0.417814	-48.030495	
0.038539	100.977740	0.092483	177.018951	179.303879	7.943341	-5.444448	1.307542	-9.560728	2.807365	0.093394	1.314386	-1.707579	0.317359	3.822274	0.	0.	0.	2.107290	1.930933	-10.163520	-1.352484	-2.288209	0.496333	-0.873262	2.807378	2.629056	0.	0.	0.	-3.370211	5.065089	-3.398628	0.127681	0.620314	-1.725313	2.201705	-2.016652	0.979940	-1.608541	-1.144006	-1.205483	-2.406565	-4.030724	-0.593029	-3.333641	-1.822750	-2.447717	-2.819750	-4.511192	-0.938893	2.162759	1.564345	-0.520252	-0.015900	-1.653420	3.115009	-2.424327	2.601264	5.354017	-1.046006	-2.192400	39.038452	2.398034	0.417814	-48.030491	
0.055837	100.978350	0.134015	177.018951	179.303879	7.943341	-5.444448	1.307542	-9.560728	2.803588	0.091330	1.271203	-1.703996	0.318051	3.865500	0.	0.	0.	2.122474	1.871873	-10.168171	-1.377630	-2.232870	0.501805	-0.873262	2.807379	2.629056	0.	0.	0.	-3.370211	5.065089	-3.398628	0.127078	0.621204	-1.740763	2.208580	-2.021327	0.988402	-1.592766	-1.142151	-1.264835	-2.421283	-4.028712	-0.539120	-3.327042	-1.824328	-2.446952	-2.810513	-4.503219	-0.935530	2.155185	1.555109	-0.507230	0.000633	-1.658065	3.060884	-2.408031	2.596333	5.353449	-1.044785	-2.193553	39.053898	2.398035	0.417814	-48.030499	
0.063831	100.978612	0.153223	177.018951	179.303879	7.943341	-5.444448	1.307542	-9.560728	2.801655	0.090293	1.249248	-1.702162	0.318391	3.887480	0.	0.	0.	2.129490	1.844561	-10.170331	-1.389255	-2.207279	0.504360	-0.873261	2.807379	2.629056	0.	0.	0.	-3.370211	5.065089	-3.398628	0.126412	0.622184	-1.757814	2.217237	-2.027315	0.996419	-1.586571	-1.138347	-1.297099	-2.424411	-4.017914	-0.551866	-3.297759	-1.829289	-2.446758	-2.800663	-4.494861	-0.931253	2.147187	1.545337	-0.493473	0.017219	-1.662786	3.006693	-2.389028	2.591078	5.348660	-1.043437	-2.194824	39.070950	2.398034	0.417814	-48.030491	
0.065752	100.978660	0.157547	177.018951	179.303879	7.943341	-5.444448	1.307542	-9.560728	2.800729	0.089788	1.238690	-1.701285	0.318562	3.898052	0.	0.	0.	2.131024	1.838584	-10.170793	-1.391267	-2.201984	0.508022	-0.873640	2.807736	2.625963	0.	0.	0.	-3.370211	5.065089	-3.398628	0.126052	0.622711	-1.767048	2.221803	-2.030456	1.000923	-1.590279	-1.135435	-1.292123	-2.420893	-4.012466	-0.578690	-3.282418	-1.831422	-2.448253	-2.795563	-4.490627	-0.928555	2.147300	1.539099	-0.492190	0.022257	-1.664176	2.982717	-2.377533	2.587899	5.343688	-1.042708	-2.195508	39.080185	2.398035	0.417814	-48.030491	
0.066120	100.978641	0.157789	177.018951	179.303879	7.943341	-5.444448	1.307542	-9.560728	2.799001	0.088860	1.219072	-1.699646	0.318871	3.917687	0.	0.	0.	2.131024	1.838584	-10.170793	-1.390166	-2.202597	0.514348	-0.874427	2.808453	2.619680	0.	0.	0.	-3.370211	5.065089	-3.398628	0.125684	0.623272	-1.776618	2.230010	-2.036413	1.001287	-1.594851	-1.130177	-1.290718	-2.419824	-4.007692	-0.594382	-3.268548	-1.833194	-2.449711	-2.790503	-4.486547	-0.925396	2.151383	1.531794	-0.496653	0.023591	-1.664492	2.964204	-2.364375	2.584397	5.336106	-1.041955	-2.196230	39.089748	2.398035	0.417814	-48.030491	
0.067255	100.978564	0.158534	177.018951	179.303879	7.943341	-5.444448	1.307542	-9.560728	2.797469	0.088033	1.201677	-1.698195	0.319150	3.935101	0.	0.	0.	2.131024	1.838584	-10.170793	-1.386762	-2.204495	0.533952	-0.876857	2.810681	2.600219	0.	0.	0.	-3.370211	5.065089	-3.398628	0.124586	0.624912	-1.804942	2.239590	-2.042645	1.020528	-1.591020	-1.126221	-1.315774	-2.424670	-4.002102	-0.589481	-3.251082	-1.834785	-2.451374	-2.775979	-4.475027	-0.915310	2.161937	1.511143	-0.510662	0.027740	-1.665359	2.915813	-2.324440	2.572368	5.311126	-1.039720	-2.198350	39.118080	2.398034	0.417814	-48.030502	
0.069653	100.978564	0.162854	177.018951	179.303879	7.943341	-5.444448	1.307542	-9.560728	2.796087	0.087285	1.185963	-1.696885	0.319403	3.950834	0.	0.	0.	2.132403	1.833218	-10.171206	-1.386561	-2.200858	0.548787	-0.878628	2.812313	2.585974	0.	0.	0.	-3.370211	5.065089	-3.398628	0.123956	0.625875	-1.821411	2.242683	-2.044368	1.034763	-1.592790	-1.124829	-1.313393	-2.423656	-4.000544	-0.597745	-3.239563	-1.833296	-2.462371	-2.767134	-4.467820	-0.910090	2.164306	1.499123	-0.521411	0.029966	-1.665261	2.903009	-2.297076	2.564110	5.284702	-1.038429	-2.199592	39.134548	2.413218	0.400331	-48.057106	
